# xmcd
#
# Track frame offsets: 
#        150
#        22645
#        42385
#        58831
#        74253
#
# Disc length: 1130 seconds
#
# Revision: 0
# Processed by: cddbd v1.4PL0 Copyright (c) Steve Scherf et al.
# Submitted via: ExactAudioCopy v0.90b3
#
DISCID=3b046805
DTITLE=Akusztikus Szemek - Sarki Tangó
DYEAR=2003
DGENRE=Blues
TTITLE0=Sarki Tangó
TTITLE1=XX. századi kölyöknek születtem
TTITLE2=Szétcsúszva
TTITLE3=Ülök a bárpultnál
TTITLE4=Sanzon Blues
EXTD=
EXTT0=
EXTT1=
EXTT2=
EXTT3=
EXTT4=
PLAYORDER=
